<svg width="52" height="52" viewBox="0 0 52 52" fill="none" xmlns="http://www.w3.org/2000/svg">
<path fill-rule="evenodd" clip-rule="evenodd" d="M46.6125 5.23716L45.3051 5.41162C45.2016 5.42612 34.9341 6.71552 26.6222 0.57472L25.8439 0L25.1328 0.657047C18.3786 6.90448 6.71003 5.4273 6.59282 5.41201L5.29644 5.23677L5.26479 6.5493C5.2433 7.43137 4.76664 28.2248 6.76746 33.9218C9.53408 41.7981 14.2292 44.3565 18.7701 46.8307C21.0858 48.0918 23.2734 49.2836 25.1515 51.1685L25.9802 52L26.8089 51.1685C28.6796 49.2922 30.8192 48.1052 33.0849 46.8483C37.5437 44.3742 42.1548 41.8162 44.9269 33.9218C46.9262 28.2299 46.6461 7.44235 46.6335 6.56028L46.6125 5.23716Z" fill="#265CAA"/>
<path fill-rule="evenodd" clip-rule="evenodd" d="M32.8147 40.6954C37.0197 35.9728 37.6782 31.5097 37.1107 27.638C37.7331 28.3449 38.402 28.7182 39.112 28.7497C39.1432 28.751 39.1744 28.7516 39.2052 28.7516C39.7852 28.7516 40.3537 28.5104 40.8819 28.0545C40.7126 29.7083 40.4865 31.0907 40.184 31.9593C38.4665 36.8945 35.7752 38.9797 32.8147 40.6954V40.6954ZM26.1536 44.905C24.5757 43.4983 22.8217 42.5372 21.1185 41.6038C18.6442 40.2477 16.265 38.943 14.361 36.3473C16.5101 37.5095 18.7063 37.9535 20.7571 37.9532C23.9543 37.9532 26.7965 36.8828 28.5484 35.8086C33.0224 33.0657 35.0754 28.1283 35.0829 23.5339C35.2348 23.9608 35.3807 24.3975 35.517 24.8427L35.5086 24.8468L35.5404 24.9197C37.0262 29.8328 37.2376 35.8364 29.7292 42.4172C28.5028 43.121 27.283 43.8981 26.1536 44.905V44.905ZM24.6506 13.991L25.697 16.2723C25.6153 16.2414 25.5352 16.2133 25.4597 16.1877C25.3643 16.1558 25.2698 16.1249 25.18 16.0851C23.9103 15.5224 22.0783 15.6452 20.9405 15.8025L21.8061 14.3494C22.2773 14.2345 23.5854 13.9472 24.6506 13.991V13.991ZM28.0638 34.9984C25.0946 36.819 18.7799 38.6257 13.2107 34.4938C12.8159 33.7414 12.4514 32.9031 12.1231 31.9593C11.3603 29.7683 11.0778 24.3302 10.9858 19.409L14.3726 16.3702C13.8571 19.5792 14.0573 22.4152 14.971 24.8168C16.1113 27.8126 18.0377 29.2963 19.4534 30.0137C22.4924 31.5539 26.0276 30.9732 28.0491 28.6023C30.9301 25.2222 29.0769 21.3132 28.2855 19.6442C28.186 19.4349 28.1037 19.2618 28.0516 19.1308C27.8811 18.7026 27.688 18.3155 27.4782 17.9682L27.5013 17.9572L25.9356 14.5439L26.655 15.2537L28.1773 13.6721L25.5514 13.7062L25.4791 13.548L26.3079 11.921L30.7826 13.1439C31.6669 15.0772 32.8331 17.7383 33.2351 18.6594L33.3065 18.8703C33.4059 19.1639 33.5176 19.4671 33.6345 19.7755C35.1063 24.8316 33.5079 31.6603 28.0638 34.9984V34.9984ZM10.9781 10.9712C12.0495 11.0439 13.8556 11.0953 15.9716 10.8677C20.1079 10.4231 23.6069 9.09 26.1536 6.99691C28.7002 9.09 32.1992 10.4231 36.3352 10.8677C38.4515 11.0953 40.2583 11.0442 41.3294 10.9712C41.3705 13.6308 41.4357 20.9767 41.0232 26.4498C40.4391 27.3421 39.7752 27.8309 39.1525 27.8034C38.28 27.7649 37.3567 26.7321 36.5532 24.896L36.4029 24.5519C35.9894 23.1907 35.4895 21.9315 35.038 20.7945C34.8553 20.3344 34.68 19.8911 34.5182 19.4636C34.4374 19.1901 34.3514 18.9199 34.2541 18.6569C34.2488 18.6417 34.1955 18.5179 34.1069 18.3139L34.0389 18.1141L34.0221 18.1201C33.5266 16.9837 32.346 14.3008 31.5394 12.5446L31.4474 12.3447L25.8224 10.8074L24.6833 13.0435C23.2271 12.987 21.4631 13.4584 21.3839 13.4802L21.2021 13.5294L19.0449 17.1517L20.1142 16.9079C20.1438 16.9016 23.165 16.2265 24.8052 16.9531C24.9219 17.0045 25.0425 17.0459 25.1651 17.0866C25.3282 17.1416 25.4822 17.1934 25.6088 17.2742C26.2184 17.6641 26.7632 18.4286 27.1835 19.4847C27.2415 19.63 27.3322 19.8223 27.4423 20.054C28.2144 21.6833 29.8215 25.0729 27.3407 27.9831C25.5998 30.026 22.5283 30.5129 19.8722 29.1665C14.9887 26.6923 14.4359 20.3272 15.5466 15.1953L15.854 13.7754L10.9665 18.1605C10.9275 15.0999 10.9559 12.3785 10.9781 10.9712V10.9712ZM43.1557 8.85635L42.122 8.99623C42.025 9.00886 32.3588 10.2485 26.7875 5.04874L26.1536 4.45703L25.5193 5.04874C19.9617 10.2359 10.2808 9.00917 10.1854 8.99623L9.15139 8.85635L9.12614 9.91253C9.10899 10.6435 8.71703 27.8723 10.3585 32.5889C12.626 39.1044 16.4908 41.2221 20.2283 43.27C22.1398 44.3174 23.9455 45.3066 25.4922 46.8727L26.1536 47.5427L26.8149 46.8727C28.3619 45.3066 30.1673 44.3177 32.0788 43.27C35.8163 41.2221 39.6811 39.1044 41.9483 32.5889C43.5904 27.8723 43.1984 10.6435 43.181 9.91253L43.1557 8.85635Z" fill="#F1BA8C"/>
</svg>
